HIERARCHY
ROOT Hips
{
	OFFSET -3.958830 18.904000 13.208200
	CHANNELS 6 Xposition Yposition Zposition Zrotation Yrotation Xrotation 
	JOINT LHipJoint
	{
		OFFSET 0.000000 0.000000 0.000000
		CHANNELS 3 Zrotation Yrotation Xrotation
		JOINT LeftUpLeg
		{
			OFFSET 1.800000 -1.400000 0.085000
			CHANNELS 3 Zrotation Yrotation Xrotation
			JOINT LeftLeg
			{
				OFFSET 2.215000 -6.000000 0.000000
				CHANNELS 3 Zrotation Yrotation Xrotation
				JOINT LeftFoot
				{
					OFFSET 2.500000 -6.900000 0.000000
					CHANNELS 3 Zrotation Yrotation Xrotation
					JOINT LeftToeBase
					{
						OFFSET 0.200000 -0.500000 1.950000
						CHANNELS 3 Zrotation Yrotation Xrotation
						End Site
						{
							OFFSET 0.000000 0.000000 0.000000
						}
					}
				}
			}
		}
	}
	JOINT RHipJoint
	{
		OFFSET 0.000000 0.000000 0.000000
		CHANNELS 3 Zrotation Yrotation Xrotation
		JOINT RightUpLeg
		{
			OFFSET -1.800000 -1.400000 0.085000
			CHANNELS 3 Zrotation Yrotation Xrotation
			JOINT RightLeg
			{
				OFFSET -2.215000 -6.000000 0.000000
				CHANNELS 3 Zrotation Yrotation Xrotation
				JOINT RightFoot
				{
					OFFSET -2.500000 -6.900000 0.000000
					CHANNELS 3 Zrotation Yrotation Xrotation
					JOINT RightToeBase
					{
						OFFSET -0.200000 -0.500000 1.950000
						CHANNELS 3 Zrotation Yrotation Xrotation
						End Site
						{
							OFFSET 0.000000 0.000000 0.000000
						}
					}
				}
			}
		}
	}
	JOINT LowerBack
	{
		OFFSET 0.000000 0.000000 0.000000
		CHANNELS 3 Zrotation Yrotation Xrotation
		JOINT Spine
		{
			OFFSET -0.087000 1.940000 -0.288900
			CHANNELS 3 Zrotation Yrotation Xrotation
			JOINT Spine1
			{
				OFFSET 0.000000 1.950000 0.060000
				CHANNELS 3 Zrotation Yrotation Xrotation
				JOINT Neck
				{
					OFFSET 0.000000 0.000000 0.000000
					CHANNELS 3 Zrotation Yrotation Xrotation
					JOINT Neck1
					{
						OFFSET 0.000000 1.600000 0.340000
						CHANNELS 3 Zrotation Yrotation Xrotation
						JOINT Head
						{
							OFFSET 0.000000 1.667000 -0.240000
							CHANNELS 3 Zrotation Yrotation Xrotation
							End Site
							{
								OFFSET 0.000000 0.000000 0.000000
							}
						}
					}
				}
				JOINT LeftShoulder
				{
					OFFSET 0.000000 0.000000 0.000000
					CHANNELS 3 Zrotation Yrotation Xrotation
					JOINT LeftArm
					{
						OFFSET 2.700000 1.550000 -0.730000
						CHANNELS 3 Zrotation Yrotation Xrotation
						JOINT LeftForeArm
						{
							OFFSET 5.450000 0.000000 0.000000
							CHANNELS 3 Zrotation Yrotation Xrotation
							JOINT LeftHand
							{
								OFFSET 3.450000 0.000000 0.000000
								CHANNELS 3 Zrotation Yrotation Xrotation
								JOINT LeftHandIndex1
								{
									OFFSET 0.750000 0.000000 0.000000
									CHANNELS 3 Zrotation Yrotation Xrotation
									End Site
									{
										OFFSET 0.000000 0.000000 0.000000
									}
								}
							}
						}
					}
				}
				JOINT RightShoulder
				{
					OFFSET 0.000000 0.000000 0.000000
					CHANNELS 3 Zrotation Yrotation Xrotation
					JOINT RightArm
					{
						OFFSET -2.700000 1.550000 -0.730000
						CHANNELS 3 Zrotation Yrotation Xrotation
						JOINT RightForeArm
						{
							OFFSET -5.450000 0.000000 0.000000
							CHANNELS 3 Zrotation Yrotation Xrotation
							JOINT RightHand
							{
								OFFSET -3.450000 0.000000 0.000000
								CHANNELS 3 Zrotation Yrotation Xrotation
								JOINT RightHandIndex1
								{
									OFFSET -0.750000 0.000000 0.000000
									CHANNELS 3 Zrotation Yrotation Xrotation
									End Site
									{
										OFFSET 0.000000 0.000000 0.000000
									}
								}
							}
						}
					}
				}
			}
		}
	}
}
MOTION
Frames: 4
Frame Time: 0.016667
1.568670 17.152390 -2.313210 -0.239574 7.533590 4.122713 -15.249466 13.360733 2.730169 1.405746 0.600291 -2.834681 -4.942918 5.208756 8.488366 -0.011391 3.752992 3.249212 0.239640 0.150460 0.315630 18.272438 -10.242209 3.239504 -2.537301 3.292788 -29.246478 8.586201 -3.538510 9.220237 0.044658 -1.703974 3.673123 0.064280 -0.195470 0.057270 -3.612186 -2.143024 -7.312671 9.383805 -5.478914 11.277746 -1.801094 -5.332785 9.809193 2.399464 0.333752 -7.756562 -0.479054 -2.082585 27.131610 -1.506440 1.166170 -14.974210 -0.561095 14.843852 2.236585 -52.017260 15.088477 -7.611238 -121.774487 -30.877400 43.279330 -3.133678 3.969097 0.317160 -0.124690 0.175920 -0.028480 -3.723001 -16.189697 4.811061 58.796537 -20.767818 -12.622332 131.289852 41.302644 61.777531 2.017906 -2.431376 -0.020980 0.022960 -0.093670 -0.177850 
1.571160 17.152480 -2.265960 0.290045 7.212027 4.188753 -15.261705 13.345026 2.755619 1.201890 0.744967 -2.163616 -5.011579 5.206374 8.012257 0.006056 3.784192 3.238356 0.242860 0.153100 0.328390 18.271746 -10.261516 3.180146 -1.908890 3.037299 -28.159507 7.025419 -3.068650 7.499241 0.053280 -1.579433 3.725435 0.063780 -0.207520 0.061560 -3.585790 -2.125698 -7.289667 9.077709 -5.465787 10.954134 -2.050483 -5.415263 9.605112 2.583667 0.636648 -7.223540 -0.036075 -2.256051 27.617450 -2.048860 1.323280 -14.812320 -1.317690 15.785314 1.701027 -51.794488 15.844772 -8.252059 -121.199127 -29.569694 40.708582 -3.131894 3.956042 0.316480 -0.123840 0.182560 -0.033100 -3.243770 -17.461920 4.466832 60.007771 -22.085217 -13.535386 130.668155 40.950869 60.458016 2.007584 -2.428056 -0.016360 0.013640 -0.098680 -0.183420 
1.566970 17.147290 -2.222230 0.498409 7.243038 4.279583 -15.266386 13.314049 2.745781 1.340661 0.796998 -1.757002 -4.967900 5.188386 7.750062 0.003228 3.803538 3.227099 0.256650 0.171310 0.346200 18.277904 -10.286180 3.150462 -1.321348 2.919626 -27.262477 5.949474 -2.773221 6.277360 0.047922 -1.527689 3.745502 0.077110 -0.217890 0.066840 -3.584382 -2.044244 -7.255077 8.843551 -5.437715 10.481976 -2.058319 -5.526600 9.649409 2.717125 1.248874 -6.877042 1.004466 -2.302619 28.048032 -2.358320 1.702180 -14.801490 -2.061416 16.125171 1.440484 -52.416470 16.038882 -8.524311 -120.347011 -28.994054 39.173381 -3.141144 3.940323 0.317500 -0.119910 0.191260 -0.035700 -2.637912 -18.325342 4.130033 61.701286 -22.100681 -13.792557 130.914044 41.762376 62.019606 2.006391 -2.416648 -0.013860 0.009450 -0.105440 -0.190950 
1.565150 17.149700 -2.185660 0.714029 6.950030 4.292265 -15.260080 13.295076 2.715153 1.191683 0.815087 -1.747086 -4.707847 5.201750 8.324447 -0.015651 3.805893 3.218589 0.281540 0.205760 0.359960 18.288049 -10.331704 3.134804 -1.108123 2.805159 -26.665685 5.308349 -2.612333 5.572071 0.040230 -1.527815 3.741577 0.105310 -0.220220 0.072220 -3.601873 -1.936465 -7.206170 8.652432 -5.292194 10.143269 -2.219371 -5.437368 9.623877 2.812177 1.646934 -6.435536 1.682552 -2.589522 28.292520 -2.486520 1.577390 -14.823340 -3.370741 16.260391 1.050760 -52.824018 15.499016 -8.257722 -119.520197 -29.484938 39.486460 -3.167597 3.932511 0.308950 -0.112760 0.194460 -0.031390 -1.420264 -18.785717 3.735185 62.718488 -21.722777 -13.739187 130.447982 42.594962 62.752082 2.012134 -2.403578 -0.008770 0.013110 -0.112960 -0.190600 
